<?xml version="1.0" encoding="utf-8"?>
<!-- Generator: Adobe Illustrator 23.0.1, SVG Export Plug-In . SVG Version: 6.00 Build 0)  -->
<svg version="1.1" id="图层_1" xmlns="http://www.w3.org/2000/svg" xmlns:xlink="http://www.w3.org/1999/xlink" x="0px" y="0px"
	 viewBox="0 0 30 30" style="enable-background:new 0 0 30 30;" xml:space="preserve">
<style type="text/css">
	.st0{fill-rule:evenodd;clip-rule:evenodd;fill:#35FDFB;}
</style>
<path class="st0" d="M23.9,4H6.1C4.4,4,3,5.5,3,7.2v12.2c0,1.7,1.4,3.2,3.1,3.2h2.1v3.5C8.1,26.6,8.5,27,9,27c0.2,0,0.4-0.1,0.6-0.3
	l4.1-4.2h10.3c1.7,0,3.1-1.5,3.1-3.2V7.2C27,5.4,25.6,4,23.9,4L23.9,4z M15.4,18.1H9.7c-0.5,0-0.8-0.4-0.8-0.8
	c0-0.4,0.4-0.8,0.8-0.8h5.7c0.5,0,0.8,0.4,0.8,0.8C16.2,17.8,15.8,18.1,15.4,18.1L15.4,18.1z M20.3,14H9.7c-0.5,0-0.8-0.4-0.8-0.8
	c0-0.5,0.4-0.8,0.8-0.8h10.6c0.5,0,0.8,0.4,0.8,0.8C21.1,13.6,20.7,14,20.3,14L20.3,14z M20.3,9.8H9.7C9.3,9.8,8.9,9.4,8.9,9
	c0-0.5,0.4-0.8,0.8-0.8h10.6c0.5,0,0.8,0.4,0.8,0.8C21.1,9.4,20.7,9.8,20.3,9.8L20.3,9.8z"/>
</svg>
