<?xml version="1.0" encoding="utf-8"?>
<!-- Generator: Adobe Illustrator 23.0.1, SVG Export Plug-In . SVG Version: 6.00 Build 0)  -->
<svg version="1.1" id="图层_1" xmlns="http://www.w3.org/2000/svg" xmlns:xlink="http://www.w3.org/1999/xlink" x="0px" y="0px"
	 viewBox="0 0 30 30" style="enable-background:new 0 0 30 30;" xml:space="preserve">
<style type="text/css">
	.st0{opacity:0.631;fill-rule:evenodd;clip-rule:evenodd;fill:#35FDFB;enable-background:new    ;}
</style>
<path class="st0" d="M14.5,4.1c1,0,1.9,0.8,1.9,1.9c0,0.2,0,0.5-0.1,0.7l3.1,3.1h3.8c0.8,0,1.4,0.6,1.4,1.4v10.3
	c0,0.8-0.6,1.4-1.4,1.4H5.9c-0.8,0-1.4-0.6-1.4-1.4V11.1c0-0.8,0.6-1.4,1.4-1.4h3.7l3.1-3.1c-0.1-0.2-0.1-0.4-0.1-0.7
	C12.6,4.9,13.5,4.1,14.5,4.1z M17,16.9H8.9c-0.3,0-0.6,0.3-0.6,0.6v0.3c0,0.3,0.3,0.6,0.6,0.6h0H17c0.3,0,0.6-0.3,0.6-0.6v-0.3
	C17.6,17.2,17.4,16.9,17,16.9z M20.2,13.8H8.9c-0.3,0-0.6,0.3-0.6,0.6v0.3c0,0.3,0.3,0.6,0.6,0.6h0h11.3c0.3,0,0.6-0.3,0.6-0.6v-0.3
	C20.8,14.1,20.5,13.8,20.2,13.8z M15.5,7.6c-0.3,0.2-0.6,0.3-0.9,0.3s-0.7-0.1-0.9-0.3l-2.1,2.1h6.2L15.5,7.6z"/>
</svg>
