<?xml version="1.0" encoding="utf-8"?>
<!-- Generator: Adobe Illustrator 23.0.1, SVG Export Plug-In . SVG Version: 6.00 Build 0)  -->
<svg version="1.1" id="图层_1" xmlns="http://www.w3.org/2000/svg" xmlns:xlink="http://www.w3.org/1999/xlink" x="0px" y="0px"
	 viewBox="0 0 30 30" style="enable-background:new 0 0 30 30;" xml:space="preserve">
<style type="text/css">
	.st0{fill-rule:evenodd;clip-rule:evenodd;fill:#35FDFB;}
</style>
<path class="st0" d="M13.6,4.3C11.7,5.4,7.9,7.4,6,8.4c-0.9,0.5-1,0.6-1,1.7v12.7C5,23.5,5.5,24,6.1,24h7.8c0.6,0,1.1-0.5,1.1-1.1
	V4.8C15,3.9,14.5,3.8,13.6,4.3L13.6,4.3z M13.4,18.9c0,0.2-0.2,0.4-0.4,0.4H7.1c-0.2,0-0.4-0.2-0.4-0.4v-0.3c0-0.2,0.2-0.4,0.4-0.4
	h5.8c0.2,0,0.4,0.2,0.4,0.4L13.4,18.9L13.4,18.9z M13.4,15.2c0,0.2-0.2,0.4-0.4,0.4H7.1c-0.2,0-0.4-0.2-0.4-0.4V15
	c0-0.2,0.2-0.4,0.4-0.4h5.8c0.2,0,0.4,0.2,0.4,0.4L13.4,15.2z M13.4,11.6c0,0.2-0.2,0.4-0.4,0.4H7.1c-0.2,0-0.4-0.2-0.4-0.4v-0.3
	c0-0.2,0.2-0.4,0.4-0.4h5.8c0.2,0,0.4,0.2,0.4,0.4L13.4,11.6z M23.9,11.5c-0.2-0.2-0.5-0.3-0.8-0.3h-5.9c-0.6,0-1.1,0.5-1.1,1.1
	v10.6c0,0.6,0.5,1.1,1.1,1.1h5.9c0.6,0,1.1-0.5,1.1-1.1V12.3C24.3,12,24.1,11.7,23.9,11.5L23.9,11.5z M22.6,18.9
	c0,0.2-0.2,0.4-0.4,0.4h-3.9c-0.2,0-0.4-0.2-0.4-0.4v-0.3c0-0.2,0.2-0.4,0.4-0.4h3.9c0.2,0,0.4,0.2,0.4,0.4V18.9L22.6,18.9z
	 M22.6,15.2c0,0.2-0.2,0.4-0.4,0.4h-3.9c-0.2,0-0.4-0.2-0.4-0.4V15c0-0.2,0.2-0.4,0.4-0.4h3.9c0.2,0,0.4,0.2,0.4,0.4V15.2L22.6,15.2
	z"/>
</svg>
