<?xml version="1.0" encoding="utf-8"?>
<!-- Generator: Adobe Illustrator 23.0.1, SVG Export Plug-In . SVG Version: 6.00 Build 0)  -->
<svg version="1.1" id="图层_1" xmlns="http://www.w3.org/2000/svg" xmlns:xlink="http://www.w3.org/1999/xlink" x="0px" y="0px"
	 viewBox="0 0 30 30" style="enable-background:new 0 0 30 30;" xml:space="preserve">
<style type="text/css">
	.st0{opacity:0.58;fill-rule:evenodd;clip-rule:evenodd;fill:#35FDFB;enable-background:new    ;}
</style>
<path class="st0" d="M23.2,4H6.9L4,9.8v2.3c0,1.1,1,2,2.2,2s2.2-1.6,2.2-2.7c0,1.1,1,2.7,2.2,2.7s2.2-1.6,2.2-2.7
	c0,1.1,1,2.7,2.2,2.7c1.2,0,2.2-1.6,2.2-2.7c0,1.1,1,2.7,2.2,2.7s2.2-1.6,2.2-2.7c0,1.1,1,2.7,2.2,2.7s2.2-0.9,2.2-2V9.8L23.2,4z
	 M20.4,14.4c-0.5,0.5-1.1,0.8-1.8,0.8s-1.3-0.3-1.8-0.8c-0.5,0.5-1.1,0.8-1.8,0.8s-1.3-0.3-1.8-0.8c-0.5,0.5-1.1,0.8-1.8,0.8
	c-0.7,0-1.3-0.3-1.8-0.8c-0.5,0.5-1.1,0.8-1.8,0.8c-0.4,0-0.7-0.1-1.1-0.2v8.4C6.8,23.7,7,24,7.4,24h15.2c0.4,0,0.6-0.3,0.6-0.7
	v-8.4c-0.3,0.2-0.7,0.2-1.1,0.2C21.5,15.2,20.9,14.9,20.4,14.4L20.4,14.4z M11.2,21.6H8.6v-4.1h2.5V21.6z"/>
</svg>
