<?xml version="1.0" encoding="utf-8"?>
<!-- Generator: Adobe Illustrator 23.0.1, SVG Export Plug-In . SVG Version: 6.00 Build 0)  -->
<svg version="1.1" id="图层_1" xmlns="http://www.w3.org/2000/svg" xmlns:xlink="http://www.w3.org/1999/xlink" x="0px" y="0px"
	 viewBox="0 0 30 30" style="enable-background:new 0 0 30 30;" xml:space="preserve">
<style type="text/css">
	.st0{fill-rule:evenodd;clip-rule:evenodd;fill:#35FDFB;}
</style>
<path class="st0" d="M8.7,14.5c0,2.9,2.3,5.2,5.2,5.2s5.2-2.3,5.2-5.2c0-2.9-2.3-5.2-5.2-5.2S8.7,11.6,8.7,14.5z M6.7,12.1L4,11.2
	C5,8,7.5,5.5,10.7,4.5l0.9,2.7C9.2,7.9,7.4,9.8,6.7,12.1z M21.3,12.1c-0.8-2.3-2.6-4.1-4.9-4.9l0.9-2.7c3.2,1,5.7,3.5,6.7,6.7
	L21.3,12.1L21.3,12.1z M10.7,24.5C7.5,23.5,5,21,4,17.8l2.7-0.9c0.8,2.3,2.6,4.1,4.9,4.9L10.7,24.5L10.7,24.5z M17.2,24.5l-0.9-2.7
	c2.3-0.8,4.1-2.6,4.9-4.9l2.7,0.9C22.9,21,20.4,23.4,17.2,24.5z"/>
</svg>
