<?xml version="1.0" encoding="utf-8"?>
<!-- Generator: Adobe Illustrator 23.0.1, SVG Export Plug-In . SVG Version: 6.00 Build 0)  -->
<svg version="1.1" id="图层_1" xmlns="http://www.w3.org/2000/svg" xmlns:xlink="http://www.w3.org/1999/xlink" x="0px" y="0px"
	 viewBox="0 0 30 30" style="enable-background:new 0 0 30 30;" xml:space="preserve">
<style type="text/css">
	.st0{fill-rule:evenodd;clip-rule:evenodd;fill:#35FDFB;}
</style>
<path class="st0" d="M29.7,12.5L16.1,0.2c-0.4-0.3-0.9-0.3-1.3,0L1.3,12.5c-0.3,0.3-0.4,0.7-0.3,1.1C1.2,14,1.6,14.3,2,14.3h2.9V28
	c0,0.6,0.4,1,1,1h19.3c0.5,0,1-0.5,1-1V14.3H29c0.4,0,0.8-0.3,0.9-0.7C30.1,13.2,30,12.8,29.7,12.5z M19.3,15.3
	c0.4,0,0.8,0.4,0.8,0.8c0,0.4-0.3,0.8-0.8,0.8h-3.1v1.6h3.1c0.4,0,0.8,0.4,0.8,0.8c0,0.4-0.3,0.8-0.8,0.8h-3.1v4.1
	c0,0.4-0.3,0.8-0.8,0.8c-0.4,0-0.8-0.4-0.8-0.8v-4.1h-3.1c-0.4,0-0.8-0.4-0.8-0.8c0-0.5,0.3-0.8,0.8-0.8c0,0,0,0,0,0h3.1v-1.6h-3.1
	c-0.4,0-0.8-0.4-0.8-0.8c0-0.5,0.3-0.8,0.8-0.8c0,0,0,0,0,0H14l-2.9-3.6c-0.3-0.3-0.2-0.9,0.1-1.2c0.3-0.3,0.8-0.3,1.1,0.1l3.2,4
	l3.3-4c0.3-0.3,0.8-0.4,1.1-0.1c0.3,0.3,0.4,0.8,0.1,1.2l-3,3.5L19.3,15.3L19.3,15.3L19.3,15.3L19.3,15.3z"/>
</svg>
